# xmcd
#
# Track frame offsets:
#	150
#	12792
#	34509
#	49702
#	69285
#	84245
#	111634
#	128275
#	145842
#	159479
#	177973
#	196335
#	212158
#	230248
#	244840
#	264964
#	276657
#
# Disc length: 3841 seconds
#
# Revision: 0
# Processed by: cddbd v1.4PL0 Copyright (c) Steve Scherf et al.
# Submitted via: EasyCDDAExtractor 4.6.9.1
#
DISCID=eb0eff11
DTITLE=Vários - Canto e Encanto Nativo - Vol. 8
DYEAR=1900
DGENRE=Nativa
TTITLE0=Prece de Gaúcho
TTITLE1=Teia de Luz
TTITLE2=Vento Chucro
TTITLE3=Conheça o Rio Grande
TTITLE4=Janelas da Liberdade
TTITLE5=Ronda de Tropa
TTITLE6=Purajhei Missioneiro
TTITLE7=Garrão do Pampa
TTITLE8=Recuerdos de Taragui
TTITLE9=Depois da Lida
TTITLE10=Corcoveando
TTITLE11=Regresso de Carreteiro
TTITLE12=My Hijo Me ha pedido un chamame
TTITLE13=Sina aprendiz
TTITLE14=Rio Grande Tche
TTITLE15=Gineteada e marcação
TTITLE16=Volvendo
EXTD=
EXTT0=
EXTT1=
EXTT2=
EXTT3=
EXTT4=
EXTT5=
EXTT6=
EXTT7=
EXTT8=
EXTT9=
EXTT10=
EXTT11=
EXTT12=
EXTT13=
EXTT14=
EXTT15=
EXTT16=
PLAYORDER=
